<svg xmlns="http://www.w3.org/2000/svg" width="200" height="200" viewBox="0 0 200 200">
<a target="_blank" cursor="pointer" pointer-events="all">
  <defs/>
  <defs/>
  <ellipse cx="83.360176" cy="87.695694" fill="none" rx="113.7088" ry="107.40259"/>
  <ellipse cx="90.855423" cy="96.986771" fill="none" rx="158.30025" ry="133.77486"/>
  <circle cx="100" cy="100" r="94.665024" fill="none" stroke="#fff" stroke-width="4.00553"/>
  <g fill="#fff" stroke-opacity="0" stroke-width="0">
    <path d="M48.822269 71.58351898h102.355462v4.652521H48.822269zM58.7926215 64.87225744h82.41708558v4.652521H58.7926215zM64.440782 58.1609959h71.11610742v4.652521H64.440782zM73.08283743 51.44973436h53.83664442v4.652521H73.08283743zM58.12765761 163.17071648V77.4317309h-4.652521v85.73898558zM146.52555661 163.17071648V77.4317309h-4.652521v85.73898558zM48.822269 164.69907195h102.355462v4.652521H48.822269zM78.06568742 171.46151123h43.86629657v4.652521H78.06568742zM78.06568742 44.73847281h43.86629657v4.652521H78.06568742zM112.31647758 36.2189698l-24.63322478-3.5e-7 12.31661062-21.33299812zM84.16747104 38.02814178h31.66738418v4.652521H84.16747104z"/>
  </g>
  <path fill="#fff" fill-rule="evenodd" d="M94.480086 82.623495c-4.512653 31.880115-18.826662 32.170255-20.395668 48.650445-1.577456 16.55344 15.266117 26.76606 18.040751 27.46042 0 0-7.912635-9.15066-7.168977-16.96188.51549-5.40983 2.742239-7.36757 6.943626-13.28726 3.021111-4.25491 6.430952-10.09431 8.939392-18.7168 8.92249 7.81123 12.74923 12.35768 14.53232 21.79002 1.78168 9.43376-5.58025 26.39564-5.58025 26.39564 26.62803-20.07031 19.80553-50.70959-15.311194-75.330585z"/></a>
</svg>
