<svg xmlns="http://www.w3.org/2000/svg" width="200" height="200" viewBox="0 0 200 200">
<a target="_blank" cursor="pointer" pointer-events="all">
  <defs/>
  <defs/>
  <ellipse cx="83.36" cy="87.7" fill="none" rx="113.71" ry="107.4"/>
  <ellipse cx="90.86" cy="96.99" fill="none" rx="158.3" ry="133.77"/>
  <circle cx="100" cy="100" r="94.67" fill="none" stroke="#fff" stroke-width="4.01"/>
  <g fill="#f3ffff" stroke-width="0">
    <g fill-rule="evenodd">
      <path d="M128.62 127.59s-5.24-8.34-1.78-10.66c13.15-9.6 34.91-30.62 19.4-56.2-15.51-25.56-51.22-22.2-66.86-21.66 19.02-18.84 56.64-16.24 76.33 14 19.68 30.23 2.23 61.18-18.56 72.03z"/>
      <path d="M136.44 175.76l-2.13-37.68 3.2-12.98-13.87 3.02 1.78 9.96-2.5 37.68z"/>
      <path d="M128.19 127.14l-4.55.99 1.78 9.95-2.5 37.68h5.57l1.92-38.09zM93.32 34.39c-2.41.02-5.59 2.5-8.57 4.45 3.6-.14 7.63-.26 12.09-.17-.62-3.18-1.9-4.3-3.52-4.28zm16.9 1.87c-2.23.1-4.54 1.61-6.74 2.71 4.1.3 8.33.86 12.52 1.8-1.21-2.1-2.38-4.51-4.85-4.46-.31-.05-.6-.06-.92-.05zm17.53 5.31c-1.75.05-3.48.4-5.09 1.03a47.02 47.02 0 0114.44 7.71c.38-2.03.89-4.25-.7-5.72a12.16 12.16 0 00-8.65-3.02zm15.27 12.96c-.43 0-.87.05-1.29.15a41.65 41.65 0 016.84 10.47c.24-.32.53-.65.9-.98 3.07-3.6-1.86-9.56-6.45-9.64zm7.87 17.59a30.8 30.8 0 01-.46 14.92c2.61-2.78 5.63-5.29 3.7-9.3-.02-2.2-1.63-3.97-3.24-5.62zm-3.43 22.35a57.23 57.23 0 01-10.34 13.7c1.7-.06 3.44-.02 4.96-.26 5.33-2.17 5.7-8.49 5.38-13.44zm-17.5 20.06a97.03 97.03 0 01-3.13 2.4c-.21.14-.4.31-.54.5 1.79.14 3.26-.6 3.67-2.9z"/>
      <path d="M125.23 137.32s-.64 1.1-.52 1.61c.12.52.87.6.87.6l9-.73s.32-.6.3-.94c0-.34-.34-.8-.34-.8z"/>
    </g>
    <g fill-rule="evenodd">
      <path d="M45 121.17a4.7 4.7 0 01-1.62.54c-.55.08-1.1.07-1.62-.09a2.27 2.27 0 01-1.3-.94c-.32-.5-.5-1.23-.32-2.21a11.48 11.48 0 00-5.06 6.07c-.35.97-.6 2.06-.7 3.26-.07 1.1.06 2.29.46 3.45a8.56 8.56 0 002.05 3.32c1 .9 2.18 1.55 3.45 1.93 1.28.37 2.66.48 4 .3 2.15-.25 4.3-.99 6.27-2.18a21.7 21.7 0 004.94-4.2 34.8 34.8 0 003.67-5.03c1.09-1.8 2.05-3.72 2.92-5.7 1.1-2.51 2.2-5.08 3.38-7.62a98.54 98.54 0 014.48-8.69 46.7 46.7 0 015.6-7.8c1.95-2.1 4.11-3.96 6.55-5.04a34.6 34.6 0 017.74-2.46 25.19 25.19 0 0114.91 1.51c2.24.94 4.32 2.16 6.2 3.6a34.4 34.4 0 015.9 5.75 45.4 45.4 0 014.42 6.58 56.28 56.28 0 014.08 9.33 74.06 74.06 0 012.3 8.55l-2 .3a56 56 0 00-5.64-17.51c-2.5-4.68-5.75-8.94-9.8-12.05a25.47 25.47 0 00-12.63-5.25c-4.97-.6-10.21.55-15 2.7-2.23.99-4.26 2.75-6.14 4.79a45.27 45.27 0 00-5.42 7.63 96.79 96.79 0 00-4.37 8.6c-1.13 2.47-2.2 5.03-3.33 7.63a41.9 41.9 0 01-6.75 11.12 23 23 0 01-5.26 4.5 17.03 17.03 0 01-6.85 2.4c-2.87.44-6.06-.34-8.66-2.61a10.22 10.22 0 01-2.95-7.94 14.82 14.82 0 013.7-8.59 17.5 17.5 0 012.2-2.1 16.01 16.01 0 013.34-2.04 5.6 5.6 0 012-.54c.63-.04 1.22.04 1.73.24a3.58 3.58 0 012.14 2.29c.19.54.19 1.02.07 1.44-.12.42-.37.78-.68 1.1-.64.65-1.56 1.16-2.4 1.66z"/>
      <path d="M69.54 77.95c-.3-.02-.58-.04-.85-.04s-.52 0-.77.04c-.43.06-.88.12-1.3.25-.44.12-.86.29-1.24.5-.37.23-.7.5-.96.81-.26.32-.44.66-.52 1-.05.2-.08.45-.1.73l-.08.86c-.06.56-.17 1.06-.61 1.11-.18.02-.53-.11-.98-.38a8.57 8.57 0 01-1.51-1.2 12.41 12.41 0 01-2.74-3.95l-.27-.61a12.63 12.63 0 01-1.08-5.6 11.7 11.7 0 011.88-5.92 14.18 14.18 0 015.37-4.75c1.27-.65 2.63-1.2 4.07-1.6a26.1 26.1 0 019.66-.85 27.76 27.76 0 019.22 2.55 36.55 36.55 0 017.72 4.8 45.46 45.46 0 015.26 4.94 75.48 75.48 0 014.27 5.1 93.38 93.38 0 014.64 6.62c1.66 2.6 3.47 5.66 5.39 9.46.96 1.9 1.95 3.98 2.95 6.27 1 2.3 2.01 4.8 3.02 7.55l2.91-1.08c-4.67-12.86-11.53-25.45-21.8-35.36a47.43 47.43 0 00-13.86-9.46c-4.58-2-9.74-3.02-15.04-2.56-2.89.24-5.98.92-9.03 2.35a16.18 16.18 0 00-6.14 5.02 13.94 13.94 0 00-2.6 8.55 15.51 15.51 0 00.9 4.79 16.65 16.65 0 003.28 5.57 14.16 14.16 0 007.85 4.53 8.62 8.62 0 007.04-1.85 6.31 6.31 0 001.5-1.87c.32-.63.47-1.24.48-1.77 0-.53-.13-1-.38-1.36a6.91 6.91 0 00-1.08-1.21 7.95 7.95 0 00-3.71-1.85l-.65-.13h-.11z"/>
      <path d="M93.51 64.83C85.21 58.9 76.9 52.6 70.67 44.46a24.25 24.25 0 01-3.1-5.02c-.17-.4-.33-.83-.44-1.26l-.07-.32-.02-.09c.04 0 .08-.02.11-.03l.04-.01a224.61 224.61 0 00.6-.05v.04l.06.26c.1.38.26.76.43 1.15.76 1.71 1.86 3.3 3.05 4.82 6.2 7.95 14.5 14.08 22.86 19.9z"/>
      <path d="M71.46 25.17l-.4.21a9.1 9.1 0 00-3.77 3.94 10.61 10.61 0 00-.98 5.47 12.98 12.98 0 001.63 5.3 4.25 4.25 0 002.98 2.06 2.74 2.74 0 002.9-1.24 3.92 3.92 0 00.63-2.52 2.05 2.05 0 00-.81-1.52c-.09-.07-.2-.13-.32-.19-.44-.22-1.1-.44-1.78-.81-.35-.19-.7-.4-1.04-.66a5.94 5.94 0 01-.92-.85c-.29-.34-.53-.71-.68-1.08a6.4 6.4 0 01-.38-3.43 7.05 7.05 0 011.77-3.59c.34-.38.65-.65.86-.82.21-.18.33-.27.31-.27zM113.05 61.53s-.2.02-.57.1a12.36 12.36 0 00-3.85 1.44c-.84.49-1.74 1.15-2.6 2.04a10.4 10.4 0 00-2.47 6.62 15.78 15.78 0 001.56 6.85l.23.48a6.15 6.15 0 003.22 3c.67.26 1.35.37 1.99.3a3.08 3.08 0 001.7-.75c.48-.42.77-.9.93-1.4.16-.5.18-1 .12-1.48a5.18 5.18 0 00-1.26-2.59c-.2-.22-.48-.44-.8-.67-.62-.46-1.43-.94-2.21-1.56a9.1 9.1 0 01-1.11-1.03 6.4 6.4 0 01-.88-1.24c-.21-.4-.36-.81-.44-1.22a6.54 6.54 0 01.64-4.3 9.04 9.04 0 011.94-2.4 10.7 10.7 0 013.38-2c.32-.13.5-.18.48-.2z"/>
      <path d="M89.04 78.34l.51-.35a27.23 27.23 0 016.4-3.23 16.49 16.49 0 016.7-.92 14.06 14.06 0 016.17 2.03 6.43 6.43 0 011.6 1.68c.42.64.7 1.33.82 2 .12.68.08 1.32-.1 1.88a3.03 3.03 0 01-2.52 2.02c-.5.06-1 0-1.44-.14a4.58 4.58 0 01-2.3-1.59c-.28-.4-.57-1-1-1.65a8.73 8.73 0 00-1.74-1.97 6.56 6.56 0 00-2.6-1.3c-1.03-.24-2.09-.32-3.08-.28-1.1.03-2.14.18-3.06.38a20.28 20.28 0 00-3.85 1.23c-.34.15-.51.23-.5.2zM80.35 91.94l-.53.4a39.56 39.56 0 00-3.35 2.9c-.71.71-1.45 1.52-2.17 2.43-.64.8-1.28 1.8-1.8 2.97-.44.87-.7 2.1-.63 3.56a5.98 5.98 0 001.88 3.78c.74.6 1.42 1 2.02 1.27.6.27 1.12.41 1.55.47.84.15 1.47.21 1.86.24.8.07 1.66-.04 2.41-.3a5.3 5.3 0 001.95-1.18c.52-.5.9-1.1 1.12-1.73.22-.64.28-1.31.14-2a3.37 3.37 0 00-2.14-2.56 4.2 4.2 0 00-2.74-.08c-.4.14-.84.46-1.4.77-.19.12-.37.28-.55.45-.18.17-.36.33-.54.42-.26.25-.74.2-1.09-.07-.24-.2-.42-.5-.53-.84a3.49 3.49 0 01-.19-1.42c.05-.86.26-1.7.52-2.47.37-1.12.85-2.14 1.35-3.01a21.53 21.53 0 012.49-3.54c.25-.3.39-.46.37-.46zM135.36 99a5.31 5.31 0 01-1.03-.43c-.4-.22-.65-.48-.8-.78-.16-.3-.22-.62-.22-.94 0-.33.07-.65.17-.93s.25-.5.38-.66c.13-.14.36-.34.55-.53.19-.2.33-.4.27-.59-.13-.37-.58-.66-1.18-.85-.6-.2-1.32-.29-1.96-.35h-.03a5.99 5.99 0 00-2 .15 8.3 8.3 0 00-2.84 1.3 8.7 8.7 0 00-1.76 1.75 9.66 9.66 0 00-1.49 2.94 12.53 12.53 0 00-.57 4.93c.06.79.17 1.61.34 2.47.17.86.4 1.75.66 2.67a155 155 0 001.84 5.9c.36 1.09.73 2.22 1.1 3.4.39 1.2.77 2.45 1.13 3.76l-1.77.48c-1.15-4.21-2.76-8.5-4.02-13.07a26.11 26.11 0 01-.98-5.53c-.1-1.82.12-3.71.76-5.54a10.47 10.47 0 013.98-5.34 9.9 9.9 0 015.66-1.5 13.9 13.9 0 012.83.4 11.48 11.48 0 012.73 1.06c.43.22.8.53 1.11.88.31.36.55.76.73 1.17.34.81.4 1.65.28 2.26-.1.5-.33.87-.6 1.14-.27.27-.6.44-.95.53-.35.1-.73.12-1.12.1a5.3 5.3 0 01-1.2-.25z"/>
      <path d="M125.14 118.5c-1.78-1.88-4.46-2.28-6.86-2.92a21.92 21.92 0 01-11.92-8.45c-.5-.98-1.15-1.96-1.18-3.1 5.11 2.85 11.2 1.74 16.05 4.7 2.58 1.59 3.85 4.74 4.32 7.7.07.41.36.8.74 1M61.08 60.8l-.3.6a39.73 39.73 0 01-2.24 3.83c-.56.82-1.22 1.7-1.98 2.57-.67.78-1.53 1.6-2.6 2.32a7.37 7.37 0 01-3.38 1.27 5.98 5.98 0 01-4.06-1.16 9.35 9.35 0 01-1.62-1.76 5.55 5.55 0 01-.74-1.43c-.3-.8-.48-1.41-.58-1.79a6.03 6.03 0 01-.14-2.43c.12-.8.4-1.52.8-2.13.4-.6.92-1.08 1.5-1.41a3.82 3.82 0 011.93-.5 3.37 3.37 0 012.91 1.63 4.2 4.2 0 01.58 2.68c-.06.42-.3.9-.5 1.51-.08.21-.2.42-.34.63-.13.2-.26.4-.31.6-.2.3-.07.77.27 1.06.24.2.57.32.91.38a3.5 3.5 0 001.44-.08c.83-.2 1.63-.57 2.33-.96a17.01 17.01 0 002.72-1.88 21.5 21.5 0 003.02-3.1c.25-.3.38-.46.38-.44z"/>
    </g>
  </g>
  </a>
</svg>
