<svg xmlns="http://www.w3.org/2000/svg" width="200" height="200" viewBox="0 0 200 200">
  <a target="_blank" cursor="pointer" pointer-events="all">
  <defs/>
  <path fill="#fff" d="M46.786779 30.82281l-1.773774 3.547549 18.624628 10.642644c0 8.868871-3.547548 15.963967-11.529531 20.398402L33.483474 54.768761l-.886887 1.773774c4.434435 13.303305 13.303305 22.172176 31.041046 22.172176 4.434435 0 17.737741 13.303306 24.832837 20.398402l14.19019-14.190193C95.565567 77.827824 79.6016 61.863857 79.6016 57.429422c0-15.963967-4.434435-26.606612-32.814821-26.606612zm110.860881 4.434436l-17.73774 12.416418-1.77378 7.095097-51.439444 51.439449-7.095096-4.43444-3.547548 3.54755c0 10.64265-12.416419 15.96397-17.737741 15.96397l-29.267273 29.26727c0 8.86887 9.755758 18.62463 18.624628 18.62463l29.267273-29.26727c0-5.32133 5.321322-17.73774 15.963967-17.73774l3.547548-3.54755-4.434435-7.0951 51.439451-51.439447 7.09509-1.773774 12.41642-17.737741zm-44.34435 60.308319L99.113115 109.75576c10.642645 10.64264 24.832835 24.83283 24.832835 29.26727 0 15.96397 4.43444 26.60661 32.81482 26.60661l1.77378-3.54755-18.62463-10.64264c0-8.86887 3.54755-15.96397 11.52953-20.3984l18.62463 10.64264.88688-1.77377c-4.43443-13.30331-13.3033-22.17218-31.04104-22.17218-4.43444 0-15.96397-11.52953-26.60661-22.172175z"/>
  <ellipse cx="83.360176" cy="87.695694" fill="none" rx="113.7088" ry="107.40259"/>
  <ellipse cx="90.855423" cy="96.986771" fill="none" rx="158.30025" ry="133.77486"/>
  <circle cx="100" cy="100" r="94.665024" fill="none" stroke="#fffff8" stroke-width="4.00553"/></a>
</svg>
