<svg xmlns="http://www.w3.org/2000/svg" id="svg2" width="200" height="200" version="1.1" viewBox="0 0 200 200">
<a target="_blank" cursor="pointer" pointer-events="all">
  <defs/>
  <defs/>
  <defs id="defs6">
    <style id="style6" type="text/css">
    </style>
  </defs>
  <ellipse id="path8" cx="83.4" cy="87.7" fill="none" fill-rule="evenodd" rx="113.7" ry="107.4"/>
  <ellipse id="path839" cx="90.9" cy="97" fill="#000" fill-opacity="0" fill-rule="evenodd" stroke-dasharray="none" stroke-miterlimit="4" stroke-width="4.8" rx="158.3" ry="133.8"/>
  <circle id="path877" cx="100" cy="100" r="94.7" fill="#000" fill-opacity="0" fill-rule="evenodd" stroke="#fff" stroke-dasharray="none" stroke-miterlimit="4" stroke-opacity="1" stroke-width="4"/>
  <g id="g852" fill="#fff" fill-opacity="1" fill-rule="evenodd" stroke="none" stroke-dasharray="none" stroke-miterlimit="4" stroke-width="0" clip-rule="evenodd" image-rendering="optimizeQuality" shape-rendering="geometricPrecision" text-rendering="geometricPrecision" transform="matrix(12.697 0 0 12.697 46 44.2)">
    <g id="Layer_x0020_1" fill="#fff" fill-opacity="1" stroke="none" stroke-dasharray="none" stroke-miterlimit="4" stroke-width="0">
      <path id="path10" fill="#fff" fill-opacity="1" stroke="none" stroke-dasharray="none" stroke-miterlimit="4" stroke-width="0" d="M4.3 1.3L.5 2.5c0 2.8.8 6.2 3.8 7.2 3-1 3.6-4.5 3.7-7.2z"/>
    </g>
  </g>
  <path id="path4171" fill="#fff" fill-opacity="1" stroke="none" stroke-dasharray="none" stroke-miterlimit="4" stroke-width="0" d="M99.5 187.8l-1.2-.4c-.6-.1-1.1-.4-1.2-.5l-.6-.7a14.2 14.2 0 01-2.6-7.4c-.2-1.7-.3-10.5-.2-23.2v-13l.1-22.1a10740.7 10740.7 0 00-.1-61.3v-2.6l-2.5-.1c-1.4 0-3-.2-3.6-.3-1.5-.2-2.1-.2-3.2.2-1.4.5-2.8.5-3 .2-.3-.6-.1-1 .6-1.2.3 0 .6-.2.5-.3 0-.2-1.7-1.4-1.9-1.4-.3 0-.9-.6-.9-1 0-.7.7-.9 2.1-.5.7.1.8 0 1.2-.2.4-.3.6-.3 1.8-.3 1.5 0 2-.1 2.6-.7.6-.5 1.3-.1 1.6.8 0 .2 7.2.3 7.4.1l.1-7.7.2-19.9c.1-.5-.7-.6-1.2 0-.9 1-3 1-3.9 0-1.9-2.2-1-6.3 1.6-7.7l.8-.5c.2-.3 1.4-.8 2-1 1.8-.3 2.1-.5 2.4-1.1 1-2.4 4.4-2.4 5 0 .3.6.5.8 1.3.8.3 0 2 .7 2.4 1l.5.3c.7.2 1.9 1.8 2.2 3l.3 1c.8 3.1-3 6.5-4.9 4.3-1-1.4-1.1-1.2-1.1 9v9.3l.3 9.2H111.1l.5-.5c.6-.8 1-.7 1.9.2l.6.7h2c1.5-.1 2-.2 2.7-.5 2-.7 2 .6-.2 2-.8.6-.8.8 0 1 2.7.4.5 1.7-2.3 1.3h-1.8a451 451 0 00-7.5.5c-.4.3-.5 1.2-.5 3.2v5.7a2071.8 2071.8 0 00-.5 41.2 5643 5643 0 01-.6 50.4l-.2 7.3a120.5 120.5 0 01-1 16.8c-.3 2-1.5 4.5-2.5 5.5-.7.6-1.9 1.2-2.2 1z"/></a>
</svg>
