<svg xmlns="http://www.w3.org/2000/svg" width="200" height="200" viewBox="0 0 200 200">
<a target="_blank" cursor="pointer" pointer-events="all">
  <defs/>
  <defs/>
  <ellipse cx="83.360176" cy="87.695694" fill="none" rx="113.7088" ry="107.40259"/>
  <ellipse cx="90.855423" cy="96.986771" fill="none" rx="158.30025" ry="133.77486"/>
  <circle cx="100" cy="100" r="94.665024" fill="none" stroke="#fff" stroke-width="4.00553"/>
  <path fill="#fff" d="M99.487085 32.056525c-25.900233-.258619-51.485923 15.202577-58.100624 36.495749-9.632333 30.540789 5.07036 48.369926 12.993287 61.787686 6.031787 10.30526 4.508296 26.20018 1.416864 37.60671h56.444548c.67218-2.4191 2.91651-9.48843 4.52201-11.63853 2.72436-3.66254 5.90582-2.68199 7.78355-2.47491 4.29081.38271 8.57305.87334 12.85069 1.38466 11.76009 1.43241 14.25127-6.7076 12.09624-18.43764 5.91763-.21309 3.58512-4.65007 2.62442-5.26493-.13038-.087-.27467-.18169-.31282-.34502.0499-.0245.10046-.0457.15181-.0644 4.67088-.99001 1.56575-4.98066 1.40998-5.40524-.58461-1.54063 3.1578-2.30769 6.43567-3.27764 6.19368-1.93914-3.86888-11.63599-7.17631-21.49908-5.21303-15.434762 4.31602-25.890522-7.69845-45.737565-6.5611-10.812912-14.33876-14.030902-16.00873-15.012744-9.1131-5.508167-19.29726-8.015868-29.432135-8.117066zm-7.141821 10.237762a40.04021 40.04021 0 0140.040216 40.04021 40.04021 40.04021 0 01-40.040216 40.040213 40.04021 40.04021 0 01-40.04021-40.040213 40.04021 40.04021 0 0140.04021-40.04021z"/>
  <path fill="#fff" d="M93.000015 9.166655l-6.0353 65.09075-24.791629-20.584319 20.584323 24.791615-65.090754 6.035292 65.09092 6.035133-20.584489 24.791624 24.791629-20.584157 6.0353 65.090747 6.035125-65.090911 24.79161 20.584321-20.58431-24.791624 65.0909-6.035133-65.09073-6.035292 20.58414-24.791615L99.03514 74.25757z"/></a>
</svg>
